<svg fill="#000000" version="1.1" id="Capa_1" xmlns="http://www.w3.org/2000/svg" xmlns:xlink="http://www.w3.org/1999/xlink" 
	 width="800px" height="800px" viewBox="0 0 399.997 399.997"
	 xml:space="preserve">
<g>
	<g>
		<g>
			<path d="M366.684,24.971H33.316C14.945,24.971,0,39.917,0,58.288V275.56c0,18.371,14.945,33.317,33.316,33.317h107.412
				l-20.387,44.955c-2.105,4.643-1.709,10.037,1.053,14.321c2.762,4.285,7.51,6.873,12.607,6.873h131.996c0.006,0,0.014,0,0.02,0
				c8.285,0,15-6.715,15-15c0-2.493-0.605-4.848-1.686-6.916l-20.062-44.233h107.412c18.371,0,33.316-14.946,33.316-33.317V58.288
				C400,39.917,385.055,24.971,366.684,24.971z M370,275.561c0,1.829-1.488,3.316-3.316,3.316H235.998h-71.996H33.316
				c-1.828,0-3.316-1.487-3.316-3.316V58.288c0-1.829,1.488-3.317,3.316-3.317h333.367c1.828,0,3.316,1.488,3.316,3.317L370,275.561
				L370,275.561z"/>
			<path d="M320.624,69.329c-16.198,0-29.374,13.178-29.374,29.376c0,1.495,0.114,2.964,0.33,4.4l-68.61,40.032
				c-5.35-5.575-12.864-9.057-21.184-9.057c-10.379,0-19.513,5.416-24.737,13.564l-68.428-26.781
				c0.082-0.889,0.129-1.787,0.129-2.696c0-16.198-13.176-29.377-29.374-29.377S50,101.969,50,118.167
				c0,16.198,13.178,29.375,29.376,29.375c8.132,0,15.501-3.324,20.827-8.681l72.457,28.359
				c1.854,14.425,14.204,25.611,29.126,25.611c16.198,0,29.376-13.178,29.376-29.375c0-0.704-0.037-1.401-0.084-2.092l69.938-40.808
				c5.203,4.674,12.076,7.525,19.606,7.525c16.198,0,29.376-13.178,29.376-29.376C349.999,82.507,336.822,69.329,320.624,69.329z
				 M79.376,127.714c-5.265,0-9.547-4.283-9.547-9.547c0-5.265,4.282-9.548,9.547-9.548c5.262,0,9.546,4.283,9.546,9.548
				C88.922,123.431,84.638,127.714,79.376,127.714z M201.786,173.002c-5.266,0-9.547-4.282-9.547-9.546
				c0-5.265,4.281-9.547,9.547-9.547c5.266,0,9.547,4.283,9.547,9.547C211.333,168.72,207.052,173.002,201.786,173.002z
				 M320.624,108.252c-5.263,0-9.548-4.283-9.548-9.547c0-5.264,4.285-9.548,9.548-9.548c5.264,0,9.547,4.284,9.547,9.548
				C330.171,103.969,325.888,108.252,320.624,108.252z"/>
			<path d="M300.41,139.172l-58.462,34.111c-2.02,18.901-17.13,33.942-36.061,35.861v51.674h134.89V139.195
				c-5.938,3.434-12.816,5.41-20.153,5.41C313.469,144.604,306.515,142.708,300.41,139.172z"/>
			<path d="M163.189,180.851l-60.974-23.864c-6.677,4.603-14.568,7.079-22.84,7.079c-7.338,0-14.217-1.976-20.153-5.408v102.16
				h134.889V208.61C179.548,205.781,167.568,195.063,163.189,180.851z"/>
		</g>
	</g>
</g>
</svg>